HIERARCHY
ROOT mixamorig:Hips
{
	OFFSET -0.000008 104.274872 1.554316
	CHANNELS 6 Xposition Yposition Zposition Xrotation Yrotation Zrotation
	JOINT mixamorig:Spine
	{
		OFFSET -0.000005 10.181595 0.131519
		CHANNELS 6 Xposition Yposition Zposition Xrotation Yrotation Zrotation
		JOINT mixamorig:Spine1
		{
			OFFSET -0.000000 9.893959 -1.470707
			CHANNELS 6 Xposition Yposition Zposition Xrotation Yrotation Zrotation
			JOINT mixamorig:Spine2
			{
				OFFSET -0.000000 9.220757 -1.370641
				CHANNELS 6 Xposition Yposition Zposition Xrotation Yrotation Zrotation
				JOINT mixamorig:Neck
				{
					OFFSET 0.000001 16.740417 -2.049036
					CHANNELS 6 Xposition Yposition Zposition Xrotation Yrotation Zrotation
					JOINT mixamorig:Head
					{
						OFFSET 0.000000 9.617874 1.685006
						CHANNELS 6 Xposition Yposition Zposition Xrotation Yrotation Zrotation
						JOINT mixamorig:HeadTop_End
						{
							OFFSET 0.000002 22.037354 7.501101
							CHANNELS 6 Xposition Yposition Zposition Xrotation Yrotation Zrotation
							End Site
							{
								OFFSET 0.000168 2310.654297 -282.823242
							}
						}
					}
				}
				JOINT mixamorig:RightShoulder
				{
					OFFSET -4.569970 11.014908 -2.160885
					CHANNELS 6 Xposition Yposition Zposition Xrotation Yrotation Zrotation
					JOINT mixamorig:RightArm
					{
						OFFSET -10.592851 -0.524811 -2.232101
						CHANNELS 6 Xposition Yposition Zposition Xrotation Yrotation Zrotation
						JOINT mixamorig:RightForeArm
						{
							OFFSET -27.841511 0.000031 -0.000004
							CHANNELS 6 Xposition Yposition Zposition Xrotation Yrotation Zrotation
							JOINT mixamorig:RightHand
							{
								OFFSET -28.328831 -0.000015 0.000015
								CHANNELS 6 Xposition Yposition Zposition Xrotation Yrotation Zrotation
								JOINT mixamorig:RightHandThumb1
								{
									OFFSET -2.464806 -1.573990 2.681852
									CHANNELS 6 Xposition Yposition Zposition Xrotation Yrotation Zrotation
									JOINT mixamorig:RightHandThumb2
									{
										OFFSET -3.215179 -1.872803 1.924282
										CHANNELS 6 Xposition Yposition Zposition Xrotation Yrotation Zrotation
										JOINT mixamorig:RightHandThumb3
										{
											OFFSET -2.654831 -1.527969 1.512609
											CHANNELS 6 Xposition Yposition Zposition Xrotation Yrotation Zrotation
											JOINT mixamorig:RightHandThumb4
											{
												OFFSET -2.018814 -1.152008 1.108052
												CHANNELS 6 Xposition Yposition Zposition Xrotation Yrotation Zrotation
												End Site
												{
													OFFSET -188.809540 -114.533607 132.431396
												}
											}
										}
									}
								}
								JOINT mixamorig:RightHandIndex1
								{
									OFFSET -9.108284 -0.517868 2.259835
									CHANNELS 6 Xposition Yposition Zposition Xrotation Yrotation Zrotation
									JOINT mixamorig:RightHandIndex2
									{
										OFFSET -3.699989 0.000000 0.001215
										CHANNELS 6 Xposition Yposition Zposition Xrotation Yrotation Zrotation
										JOINT mixamorig:RightHandIndex3
										{
											OFFSET -2.850006 0.000031 -0.000522
											CHANNELS 6 Xposition Yposition Zposition Xrotation Yrotation Zrotation
											JOINT mixamorig:RightHandIndex4
											{
												OFFSET -2.772186 -0.000015 -0.000020
												CHANNELS 6 Xposition Yposition Zposition Xrotation Yrotation Zrotation
												End Site
												{
													OFFSET -277.218445 0.000000 -0.050231
												}
											}
										}
									}
								}
								JOINT mixamorig:RightHandMiddle1
								{
									OFFSET -9.532516 -0.000031 -0.000023
									CHANNELS 6 Xposition Yposition Zposition Xrotation Yrotation Zrotation
									JOINT mixamorig:RightHandMiddle2
									{
										OFFSET -3.700005 -0.000015 0.003713
										CHANNELS 6 Xposition Yposition Zposition Xrotation Yrotation Zrotation
										JOINT mixamorig:RightHandMiddle3
										{
											OFFSET -2.949974 0.000015 -0.002054
											CHANNELS 6 Xposition Yposition Zposition Xrotation Yrotation Zrotation
											JOINT mixamorig:RightHandMiddle4
											{
												OFFSET -2.946640 0.000000 -0.000156
												CHANNELS 6 Xposition Yposition Zposition Xrotation Yrotation Zrotation
												End Site
												{
													OFFSET -294.664337 0.000000 -0.113670
												}
											}
										}
									}
								}
								JOINT mixamorig:RightHandRing1
								{
									OFFSET -9.103600 -0.043076 -1.865134
									CHANNELS 6 Xposition Yposition Zposition Xrotation Yrotation Zrotation
									JOINT mixamorig:RightHandRing2
									{
										OFFSET -3.379288 0.000000 -0.001055
										CHANNELS 6 Xposition Yposition Zposition Xrotation Yrotation Zrotation
										JOINT mixamorig:RightHandRing3
										{
											OFFSET -2.889687 -0.000015 0.000379
											CHANNELS 6 Xposition Yposition Zposition Xrotation Yrotation Zrotation
											JOINT mixamorig:RightHandRing4
											{
												OFFSET -2.638809 -0.000015 0.000941
												CHANNELS 6 Xposition Yposition Zposition Xrotation Yrotation Zrotation
												End Site
												{
													OFFSET -263.880371 0.000000 0.516020
												}
											}
										}
									}
								}
								JOINT mixamorig:RightHandPinky1
								{
									OFFSET -8.076683 -0.486710 -3.806280
									CHANNELS 6 Xposition Yposition Zposition Xrotation Yrotation Zrotation
									JOINT mixamorig:RightHandPinky2
									{
										OFFSET -3.600014 -0.000015 -0.003747
										CHANNELS 6 Xposition Yposition Zposition Xrotation Yrotation Zrotation
										JOINT mixamorig:RightHandPinky3
										{
											OFFSET -2.099983 0.000000 -0.005739
											CHANNELS 6 Xposition Yposition Zposition Xrotation Yrotation Zrotation
											JOINT mixamorig:RightHandPinky4
											{
												OFFSET -2.115768 -0.000031 -0.003680
												CHANNELS 6 Xposition Yposition Zposition Xrotation Yrotation Zrotation
												End Site
												{
													OFFSET -211.577087 0.000000 -0.350686
												}
											}
										}
									}
								}
							}
						}
					}
				}
				JOINT mixamorig:LeftShoulder
				{
					OFFSET 4.570447 11.014725 -2.160855
					CHANNELS 6 Xposition Yposition Zposition Xrotation Yrotation Zrotation
					JOINT mixamorig:LeftArm
					{
						OFFSET 10.592371 -0.524597 -2.232119
						CHANNELS 6 Xposition Yposition Zposition Xrotation Yrotation Zrotation
						JOINT mixamorig:LeftForeArm
						{
							OFFSET 27.841532 -0.000031 0.000026
							CHANNELS 6 Xposition Yposition Zposition Xrotation Yrotation Zrotation
							JOINT mixamorig:LeftHand
							{
								OFFSET 28.328846 -0.000061 0.000022
								CHANNELS 6 Xposition Yposition Zposition Xrotation Yrotation Zrotation
								JOINT mixamorig:LeftHandThumb1
								{
									OFFSET 2.466141 -1.576172 2.681732
									CHANNELS 6 Xposition Yposition Zposition Xrotation Yrotation Zrotation
									JOINT mixamorig:LeftHandThumb2
									{
										OFFSET 3.217812 -1.872070 1.916482
										CHANNELS 6 Xposition Yposition Zposition Xrotation Yrotation Zrotation
										JOINT mixamorig:LeftHandThumb3
										{
											OFFSET 2.656029 -1.528778 1.514513
											CHANNELS 6 Xposition Yposition Zposition Xrotation Yrotation Zrotation
											JOINT mixamorig:LeftHandThumb4
											{
												OFFSET 2.020889 -1.154053 1.115139
												CHANNELS 6 Xposition Yposition Zposition Xrotation Yrotation Zrotation
												End Site
												{
													OFFSET 190.885437 -115.081749 130.048782
												}
											}
										}
									}
								}
								JOINT mixamorig:LeftHandIndex1
								{
									OFFSET 9.109314 -0.518021 2.259871
									CHANNELS 6 Xposition Yposition Zposition Xrotation Yrotation Zrotation
									JOINT mixamorig:LeftHandIndex2
									{
										OFFSET 3.699989 0.000000 -0.000322
										CHANNELS 6 Xposition Yposition Zposition Xrotation Yrotation Zrotation
										JOINT mixamorig:LeftHandIndex3
										{
											OFFSET 2.850006 0.000000 0.000352
											CHANNELS 6 Xposition Yposition Zposition Xrotation Yrotation Zrotation
											JOINT mixamorig:LeftHandIndex4
											{
												OFFSET 2.774864 -0.000031 -0.000027
												CHANNELS 6 Xposition Yposition Zposition Xrotation Yrotation Zrotation
												End Site
												{
													OFFSET 277.486267 0.000000 -0.009857
												}
											}
										}
									}
								}
								JOINT mixamorig:LeftHandMiddle1
								{
									OFFSET 9.533394 0.000061 0.000044
									CHANNELS 6 Xposition Yposition Zposition Xrotation Yrotation Zrotation
									JOINT mixamorig:LeftHandMiddle2
									{
										OFFSET 3.699989 -0.000015 -0.000231
										CHANNELS 6 Xposition Yposition Zposition Xrotation Yrotation Zrotation
										JOINT mixamorig:LeftHandMiddle3
										{
											OFFSET 2.949997 -0.000015 -0.000059
											CHANNELS 6 Xposition Yposition Zposition Xrotation Yrotation Zrotation
											JOINT mixamorig:LeftHandMiddle4
											{
												OFFSET 2.952896 0.000031 0.000063
												CHANNELS 6 Xposition Yposition Zposition Xrotation Yrotation Zrotation
												End Site
												{
													OFFSET 295.289337 0.000000 0.022810
												}
											}
										}
									}
								}
								JOINT mixamorig:LeftHandRing1
								{
									OFFSET 9.104523 -0.042999 -1.865074
									CHANNELS 6 Xposition Yposition Zposition Xrotation Yrotation Zrotation
									JOINT mixamorig:LeftHandRing2
									{
										OFFSET 3.150009 -0.000031 0.000043
										CHANNELS 6 Xposition Yposition Zposition Xrotation Yrotation Zrotation
										JOINT mixamorig:LeftHandRing3
										{
											OFFSET 2.949982 -0.000015 0.000040
											CHANNELS 6 Xposition Yposition Zposition Xrotation Yrotation Zrotation
											JOINT mixamorig:LeftHandRing4
											{
												OFFSET 2.644348 0.000000 0.000057
												CHANNELS 6 Xposition Yposition Zposition Xrotation Yrotation Zrotation
												End Site
												{
													OFFSET 264.434631 0.000000 0.012105
												}
											}
										}
									}
								}
								JOINT mixamorig:LeftHandPinky1
								{
									OFFSET 8.077789 -0.486847 -3.806259
									CHANNELS 6 Xposition Yposition Zposition Xrotation Yrotation Zrotation
									JOINT mixamorig:LeftHandPinky2
									{
										OFFSET 3.599953 0.000031 0.014727
										CHANNELS 6 Xposition Yposition Zposition Xrotation Yrotation Zrotation
										JOINT mixamorig:LeftHandPinky3
										{
											OFFSET 2.100021 0.000015 0.007705
											CHANNELS 6 Xposition Yposition Zposition Xrotation Yrotation Zrotation
											JOINT mixamorig:LeftHandPinky4
											{
												OFFSET 2.125504 0.000031 0.007517
												CHANNELS 6 Xposition Yposition Zposition Xrotation Yrotation Zrotation
												End Site
												{
													OFFSET 212.550781 0.000000 0.625752
												}
											}
										}
									}
								}
							}
						}
					}
				}
			}
		}
	}
	JOINT mixamorig:RightUpLeg
	{
		OFFSET -8.207787 -6.751648 -1.599560
		CHANNELS 6 Xposition Yposition Zposition Xrotation Yrotation Zrotation
		JOINT mixamorig:RightLeg
		{
			OFFSET -0.000002 -44.370117 0.345942
			CHANNELS 6 Xposition Yposition Zposition Xrotation Yrotation Zrotation
			JOINT mixamorig:RightFoot
			{
				OFFSET 0.000003 -44.423679 -3.043532
				CHANNELS 6 Xposition Yposition Zposition Xrotation Yrotation Zrotation
				JOINT mixamorig:RightToeBase
				{
					OFFSET -0.000002 -8.728671 10.710558
					CHANNELS 6 Xposition Yposition Zposition Xrotation Yrotation Zrotation
					JOINT mixamorig:RightToe_End
					{
						OFFSET -0.000001 -0.000679 9.278119
						CHANNELS 6 Xposition Yposition Zposition Xrotation Yrotation Zrotation
						End Site
						{
							OFFSET 0.000000 -0.067690 927.812134
						}
					}
				}
			}
		}
	}
	JOINT mixamorig:LeftUpLeg
	{
		OFFSET 8.207793 -6.751686 -1.599556
		CHANNELS 6 Xposition Yposition Zposition Xrotation Yrotation Zrotation
		JOINT mixamorig:LeftLeg
		{
			OFFSET -0.000004 -44.370014 0.346954
			CHANNELS 6 Xposition Yposition Zposition Xrotation Yrotation Zrotation
			JOINT mixamorig:LeftFoot
			{
				OFFSET -0.000001 -44.423672 -3.044401
				CHANNELS 6 Xposition Yposition Zposition Xrotation Yrotation Zrotation
				JOINT mixamorig:LeftToeBase
				{
					OFFSET -0.000002 -8.728669 10.710558
					CHANNELS 6 Xposition Yposition Zposition Xrotation Yrotation Zrotation
					JOINT mixamorig:LeftToe_End
					{
						OFFSET -0.000003 -0.000679 9.278133
						CHANNELS 6 Xposition Yposition Zposition Xrotation Yrotation Zrotation
						End Site
						{
							OFFSET 0.000000 -0.068021 927.813477
						}
					}
				}
			}
		}
	}
}
MOTION
Frames: 3
Frame Time: 0.033333
0.000006 104.270477 1.554256 0.000010 0.000003 -0.000113 -0.000005 10.181587 0.131522 0.000001 -0.000003 0.000084 -0.000000 9.893967 -1.470711 0.000001 0.000000 -0.000000 -0.000000 9.220802 -1.370642 0.000000 -0.000000 -0.000000 0.000001 16.740433 -2.049030 0.000000 -0.000000 -0.000000 0.000000 9.617859 1.685014 0.000000 0.000000 0.000000 0.000002 22.037384 7.501101 0.000000 -0.000000 0.000000 -4.569968 11.014880 -2.160881 0.000008 0.000001 -0.000038 -10.592875 -0.524757 -2.231920 79.202655 26.961216 -22.435117 -27.841518 -0.000008 0.000552 -52.166864 110.177071 70.094243 -28.328810 0.000007 0.000029 -0.000321 -0.000043 0.000006 -2.464523 -1.573632 2.682287 -54.846259 172.879874 -41.687411 -3.215298 -1.872604 1.924677 154.378094 29.816614 -7.129893 -2.654951 -1.527899 1.513076 146.909938 26.943667 -37.107407 -2.018826 -1.152015 1.108067 -0.000001 -0.000001 0.000002 -9.108397 -0.517570 2.260141 103.161572 17.774481 -22.365016 -3.700085 0.000290 0.001531 98.426175 14.926192 -17.239087 -2.850090 0.000369 -0.000251 96.860572 12.183004 -13.721626 -2.772163 0.000002 -0.000021 -0.000001 -0.000001 -0.000000 -9.532600 0.000260 0.000219 91.297575 18.438014 -19.001579 -3.700072 0.000311 0.003959 88.679447 13.140595 -12.750052 -2.950050 0.000340 -0.001816 88.553368 11.393667 -11.104454 -2.946634 0.000001 -0.000156 -0.000001 -0.000002 0.000004 -9.103713 -0.042767 -1.864887 86.323441 20.362790 -19.077225 -3.379333 0.000304 -0.000853 84.098555 10.624811 -9.604160 -2.889741 0.000353 0.000579 88.928517 6.297686 -6.225530 -2.638813 -0.000016 0.000946 -0.000001 -0.000002 0.000002 -8.076762 -0.486405 -3.806089 71.916510 19.058523 -13.772070 -3.600056 0.000242 -0.003564 75.118339 10.130537 -7.517024 -2.100003 0.000304 -0.005546 78.387677 6.062288 -4.764243 -2.115774 -0.000055 -0.003679 -0.000001 -0.000000 -0.000004 4.570446 11.014691 -2.160851 -0.000018 0.000010 -0.000021 10.592397 -0.524474 -2.232358 76.751696 -11.745849 9.313843 27.841852 0.000091 -0.000196 110.365864 -67.656555 87.877146 28.328833 -0.000029 0.000023 0.000019 -0.000088 -0.000000 2.465827 -1.575924 2.681833 126.198769 -18.618011 -118.511063 3.217856 -1.871859 1.916397 152.501609 -25.540586 34.870779 2.656107 -1.528664 1.514461 134.787527 -29.210195 48.285356 2.020892 -1.154076 1.115139 0.000000 0.000003 -0.000001 9.109354 -0.517875 2.259722 77.992776 -16.114843 13.067345 3.700045 0.000132 -0.000456 72.774709 -14.187671 10.492490 2.850056 0.000143 0.000208 69.808126 -12.339993 8.625975 2.774877 -0.000033 -0.000029 0.000000 -0.000005 0.000001 9.533421 0.000184 -0.000097 77.304586 -14.015476 11.222505 3.700043 0.000141 -0.000378 77.527469 -12.544309 10.084937 2.950076 0.000131 -0.000194 74.955500 -16.667830 12.818968 2.952887 -0.000013 0.000063 0.000000 -0.000000 0.000000 9.104546 -0.042869 -1.865225 77.348935 -13.699691 10.985827 3.150044 0.000177 -0.000095 81.588502 -12.933653 11.175455 2.950022 0.000146 -0.000064 81.753656 -15.239125 13.210841 2.644341 0.000032 0.000059 0.000001 -0.000001 -0.000000 8.077814 -0.486761 -3.806400 62.342661 -16.876298 10.627018 3.599997 0.000127 0.014569 65.033271 -12.270785 8.168740 2.100043 0.000156 0.007558 66.520319 -12.024453 8.225943 2.125506 0.000000 0.007517 0.000001 -0.000000 -0.000001 -8.207786 -6.751667 -1.599560 -0.077001 -0.000003 0.000080 -0.000002 -44.370110 0.345938 0.153719 -0.000000 -0.000000 0.000000 -44.423679 -3.043532 -0.076700 0.000000 -0.000002 -0.000006 -8.728667 10.710559 -0.000009 -0.000000 -0.000000 -0.000001 -0.000679 9.278123 0.000000 -0.000000 -0.000000 8.207792 -6.751710 -1.599556 -0.074518 -0.000003 0.000081 -0.000002 -44.370014 0.346960 0.148822 0.000002 0.000000 -0.000001 -44.423664 -3.044403 -0.074314 0.000000 -0.000002 -0.000004 -8.728671 10.710558 0.000007 -0.000000 -0.000000 0.000000 -0.000680 9.278137 -0.000000 0.000000 -0.000001 
0.000006 104.270477 1.554256 0.000010 0.000003 -0.000113 -0.000005 10.181587 0.131522 0.000001 -0.000003 0.000084 -0.000000 9.893967 -1.470711 0.000001 0.000000 -0.000000 -0.000000 9.220802 -1.370642 0.000000 -0.000000 -0.000000 0.000001 16.740433 -2.049030 0.000000 -0.000000 -0.000000 0.000000 9.617859 1.685014 0.000000 0.000000 0.000000 0.000002 22.037384 7.501101 0.000000 -0.000000 0.000000 -4.569968 11.014880 -2.160881 0.000008 0.000001 -0.000038 -10.592869 -0.524793 -2.231875 79.784601 34.785119 -29.345474 -27.841511 0.000011 0.000533 -48.869109 105.863827 62.049653 -28.328833 0.000022 0.000020 -0.000321 -0.000046 0.000009 -2.464582 -1.573601 2.682239 -55.533703 164.511363 -61.858387 -3.215280 -1.872615 1.924652 150.903071 30.487642 -1.000236 -2.654965 -1.527855 1.513064 144.108194 27.949278 -30.701086 -2.018830 -1.152004 1.108067 -0.000003 0.000002 0.000003 -9.108369 -0.517552 2.260130 101.488968 15.371803 -18.811193 -3.700062 0.000310 0.001520 98.613793 13.765226 -15.953047 -2.850106 0.000364 -0.000258 97.039831 12.048666 -13.613041 -2.772154 -0.000013 -0.000019 -0.000001 0.000000 -0.000001 -9.532579 0.000264 0.000218 88.765323 16.316303 -16.112795 -3.700077 0.000301 0.003953 88.085432 12.475182 -11.976178 -2.950054 0.000336 -0.001839 89.119147 12.081099 -11.891078 -2.946626 0.000002 -0.000155 0.000003 0.000001 0.000000 -9.103718 -0.042792 -1.864894 84.467071 20.470193 -18.575738 -3.379317 0.000301 -0.000844 84.375355 9.225216 -8.380186 -2.889746 0.000364 0.000599 88.566721 6.726321 -6.604785 -2.638809 -0.000001 0.000942 -0.000001 -0.000000 0.000000 -8.076770 -0.486424 -3.806082 74.031246 21.172430 -15.921646 -3.600028 0.000256 -0.003603 73.034420 9.221779 -6.566619 -2.099998 0.000303 -0.005576 74.773878 4.902214 -3.580693 -2.115773 -0.000055 -0.003678 -0.000002 -0.000000 -0.000001 4.570446 11.014691 -2.160851 -0.000018 0.000010 -0.000021 10.592424 -0.524458 -2.232378 76.945906 -20.112715 16.043517 27.841835 0.000059 -0.000207 110.745288 -71.662283 92.554261 28.328815 -0.000028 0.000023 0.000030 -0.000090 0.000000 2.465881 -1.575833 2.681793 139.166785 -36.259876 -83.070530 3.217858 -1.871857 1.916410 156.897423 -23.442929 41.300641 2.656099 -1.528675 1.514487 132.620444 -30.041228 58.688107 2.020879 -1.154077 1.115136 -0.000003 0.000001 0.000004 9.109371 -0.517892 2.259750 75.278541 -18.017539 13.931614 3.700032 0.000139 -0.000464 73.762990 -12.079695 9.090981 2.850029 0.000157 0.000200 73.700623 -9.627262 7.221797 2.774887 -0.000015 -0.000027 -0.000000 -0.000001 -0.000000 9.533454 0.000184 -0.000080 75.841348 -17.366287 13.562994 3.700022 0.000151 -0.000362 78.945826 -10.834449 8.928998 2.950041 0.000159 -0.000208 80.275971 -12.061482 10.183716 2.952858 -0.000031 0.000060 -0.000000 0.000003 -0.000000 9.104584 -0.042883 -1.865233 76.102671 -17.496901 13.738172 3.150035 0.000188 -0.000094 82.025265 -11.561522 10.064641 2.950016 0.000167 -0.000088 83.558280 -11.038574 9.870110 2.644326 0.000014 0.000064 -0.000001 0.000001 -0.000000 8.077827 -0.486765 -3.806396 64.946998 -19.089708 12.613988 3.599998 0.000134 0.014575 68.096966 -15.784878 11.065350 2.100014 0.000126 0.007545 70.327193 -12.904804 9.459151 2.125498 -0.000015 0.007516 -0.000003 -0.000000 -0.000001 -8.207786 -6.751667 -1.599560 -0.077001 -0.000003 0.000080 -0.000002 -44.370110 0.345938 0.153719 -0.000000 -0.000000 0.000000 -44.423679 -3.043532 -0.076700 0.000000 -0.000002 -0.000006 -8.728667 10.710559 -0.000009 -0.000000 -0.000000 -0.000001 -0.000679 9.278123 0.000000 -0.000000 -0.000000 8.207792 -6.751710 -1.599556 -0.074518 -0.000003 0.000081 -0.000002 -44.370014 0.346960 0.148822 0.000002 0.000000 -0.000001 -44.423664 -3.044403 -0.074314 0.000000 -0.000002 -0.000004 -8.728671 10.710558 0.000007 -0.000000 -0.000000 0.000000 -0.000680 9.278137 -0.000000 0.000000 -0.000001 
0.000006 104.270477 1.554256 0.000010 0.000003 -0.000113 -0.000005 10.181587 0.131522 0.000001 -0.000003 0.000084 -0.000000 9.893967 -1.470711 0.000001 0.000000 -0.000000 -0.000000 9.220802 -1.370642 0.000000 -0.000000 -0.000000 0.000001 16.740433 -2.049030 0.000000 -0.000000 -0.000000 0.000000 9.617859 1.685014 0.000000 0.000000 0.000000 0.000002 22.037384 7.501101 0.000000 -0.000000 0.000000 -4.569968 11.014880 -2.160881 0.000008 0.000001 -0.000038 -10.592853 -0.524805 -2.231831 79.858654 41.017202 -34.769098 -27.841522 0.000007 0.000550 -47.749641 104.413054 59.430862 -28.328815 0.000020 0.000028 -0.000317 -0.000043 0.000011 -2.464546 -1.573619 2.682240 -56.010232 168.927257 -53.780565 -3.215288 -1.872592 1.924650 150.587803 30.570048 -0.158385 -2.654964 -1.527884 1.513058 144.018555 28.003110 -30.106723 -2.018822 -1.151998 1.108049 -0.000003 -0.000003 0.000000 -9.108368 -0.517552 2.260135 100.922356 15.968398 -19.342590 -3.700081 0.000333 0.001525 98.267147 14.726187 -16.961697 -2.850116 0.000356 -0.000256 97.129941 12.846356 -14.535112 -2.772163 -0.000016 -0.000017 -0.000001 -0.000003 0.000000 -9.532598 0.000259 0.000209 88.352226 16.434837 -16.113974 -3.700068 0.000321 0.003942 87.837141 12.888359 -12.322528 -2.950058 0.000338 -0.001828 89.238115 12.392892 -12.223359 -2.946636 0.000001 -0.000157 -0.000004 0.000002 0.000001 -9.103705 -0.042768 -1.864883 84.610491 20.348737 -18.510598 -3.379312 0.000299 -0.000865 83.685561 9.378426 -8.417116 -2.889742 0.000337 0.000566 87.756907 6.920306 -6.698948 -2.638817 -0.000003 0.000941 -0.000001 -0.000001 0.000000 -8.076752 -0.486411 -3.806057 74.256184 21.312642 -16.093505 -3.600044 0.000259 -0.003586 72.310257 9.668642 -6.806183 -2.100016 0.000301 -0.005565 73.965642 5.148502 -3.713603 -2.115752 -0.000036 -0.003680 0.000004 -0.000001 -0.000003 4.570446 11.014691 -2.160851 -0.000018 0.000010 -0.000021 10.592473 -0.524455 -2.232409 77.010922 -35.724277 28.760595 27.841831 0.000043 -0.000185 110.303805 -75.312043 95.880850 28.328831 -0.000029 0.000023 0.000022 -0.000090 0.000000 2.466253 -1.575925 2.681775 192.655608 -9.457387 46.160973 3.217875 -1.871872 1.916439 162.064721 -19.232761 52.386168 2.656103 -1.528699 1.514486 136.881881 -28.402169 61.342011 2.020895 -1.154068 1.115146 0.000002 0.000003 0.000004 9.109379 -0.517879 2.259750 81.344609 -20.590756 17.732091 3.700045 0.000159 -0.000473 80.984180 -11.450598 9.800065 2.850056 0.000182 0.000200 79.950247 -8.265122 6.931679 2.774897 -0.000031 -0.000025 -0.000003 -0.000002 -0.000001 9.533470 0.000182 -0.000101 80.030836 -18.323634 15.414762 3.700032 0.000196 -0.000391 84.178878 -8.210382 7.415937 2.950036 0.000162 -0.000209 84.192088 -9.796491 8.857116 2.952859 -0.000013 0.000064 0.000005 -0.000000 -0.000000 9.104601 -0.042877 -1.865222 79.121649 -17.551179 14.537040 3.150035 0.000205 -0.000103 85.359551 -11.003232 10.152628 2.950022 0.000174 -0.000084 86.066428 -10.503789 9.811480 2.644318 0.000014 0.000058 -0.000001 -0.000001 -0.000000 8.077837 -0.486756 -3.806384 68.216637 -19.302364 13.560742 3.599992 0.000138 0.014594 71.038407 -16.936735 12.518150 2.100050 0.000158 0.007549 74.003208 -14.234658 11.128281 2.125511 -0.000000 0.007513 0.000000 0.000001 -0.000000 -8.207786 -6.751667 -1.599560 -0.077001 -0.000003 0.000080 -0.000002 -44.370110 0.345938 0.153719 -0.000000 -0.000000 0.000000 -44.423679 -3.043532 -0.076700 0.000000 -0.000002 -0.000006 -8.728667 10.710559 -0.000009 -0.000000 -0.000000 -0.000001 -0.000679 9.278123 0.000000 -0.000000 -0.000000 8.207792 -6.751710 -1.599556 -0.074518 -0.000003 0.000081 -0.000002 -44.370014 0.346960 0.148822 0.000002 0.000000 -0.000001 -44.423664 -3.044403 -0.074314 0.000000 -0.000002 -0.000004 -8.728671 10.710558 0.000007 -0.000000 -0.000000 0.000000 -0.000680 9.278137 -0.000000 0.000000 -0.000001 
